<?xml version="1.0" encoding="UTF-8" standalone="no"?>
<svg
   xmlns:dc="http://purl.org/dc/elements/1.1/"
   xmlns:cc="http://creativecommons.org/ns#"
   xmlns:rdf="http://www.w3.org/1999/02/22-rdf-syntax-ns#"
   xmlns:svg="http://www.w3.org/2000/svg"
   xmlns="http://www.w3.org/2000/svg"
   xmlns:sodipodi="http://sodipodi.sourceforge.net/DTD/sodipodi-0.dtd"
   xmlns:inkscape="http://www.inkscape.org/namespaces/inkscape"
   version="1.1"
   id="Capa_1"
   x="0px"
   y="0px"
   viewBox="0 0 489 489"
   style="enable-background:new 0 0 489 489;"
   xml:space="preserve"
   width="512px"
   height="512px"
   sodipodi:docname="logo.svg"
   inkscape:version="0.92.2 (5c3e80d, 2017-08-06)"><metadata
     id="metadata59"><rdf:RDF><cc:Work
         rdf:about=""><dc:format>image/svg+xml</dc:format><dc:type
           rdf:resource="http://purl.org/dc/dcmitype/StillImage" /><dc:title></dc:title></cc:Work></rdf:RDF></metadata><defs
     id="defs57" /><sodipodi:namedview
     pagecolor="#ffffff"
     bordercolor="#666666"
     borderopacity="1"
     objecttolerance="10"
     gridtolerance="10"
     guidetolerance="10"
     inkscape:pageopacity="0"
     inkscape:pageshadow="2"
     inkscape:window-width="1366"
     inkscape:window-height="705"
     id="namedview55"
     showgrid="true"
     inkscape:zoom="0.4609375"
     inkscape:cx="-96.542373"
     inkscape:cy="256"
     inkscape:window-x="285"
     inkscape:window-y="760"
     inkscape:window-maximized="1"
     inkscape:current-layer="Capa_1"
     showguides="true"><inkscape:grid
       type="xygrid"
       id="grid65" /></sodipodi:namedview><g
     id="g52"
     style="fill:#e6e9e9;fill-opacity:1"><g
       id="g50"
       style="fill:#e6e9e9;fill-opacity:1"><path
         d="M440.1,422.7l-28-315.3c-0.6-7-6.5-12.3-13.4-12.3h-57.6C340.3,42.5,297.3,0,244.5,0s-95.8,42.5-96.6,95.1H90.3   c-7,0-12.8,5.3-13.4,12.3l-28,315.3c0,0.4-0.1,0.8-0.1,1.2c0,35.9,32.9,65.1,73.4,65.1h244.6c40.5,0,73.4-29.2,73.4-65.1   C440.2,423.5,440.2,423.1,440.1,422.7z M244.5,27c37.9,0,68.8,30.4,69.6,68.1H174.9C175.7,57.4,206.6,27,244.5,27z M366.8,462   H122.2c-25.4,0-46-16.8-46.4-37.5l26.8-302.3h45.2v41c0,7.5,6,13.5,13.5,13.5s13.5-6,13.5-13.5v-41h139.3v41   c0,7.5,6,13.5,13.5,13.5s13.5-6,13.5-13.5v-41h45.2l26.9,302.3C412.8,445.2,392.1,462,366.8,462z"
         data-original="#000000"
         class="active-path"
         fill="#000000"
         id="path48"
         style="fill:#e6e9e9;fill-opacity:1" /></g></g><text
     xml:space="preserve"
     style="font-style:normal;font-variant:normal;font-weight:normal;font-stretch:normal;font-size:330.69155884px;line-height:1.25;font-family:'Berlin Sans FB';-inkscape-font-specification:'Berlin Sans FB';letter-spacing:0px;word-spacing:0px;fill:#c8ab37;fill-opacity:1;stroke:none;stroke-width:8.26728821;"
     x="120.31004"
     y="441.27884"
     id="text63"
     transform="scale(1.0796153,0.92625587)"><tspan
       sodipodi:role="line"
       id="tspan61"
       x="120.31004"
       y="441.27884"
       style="font-style:normal;font-variant:normal;font-weight:normal;font-stretch:normal;font-family:'Berlin Sans FB';-inkscape-font-specification:'Berlin Sans FB';fill:#c8ab37;stroke-width:8.26728821;">A</tspan></text>
</svg>